<svg xmlns="http://www.w3.org/2000/svg" viewBox="0 0 720 256" role="img" aria-label="SynergyPlus logo">
  <title>SynergyPlus — S+ Mesh (horizontal lockup)</title>

  <!-- ===== icon ===== -->
  <g transform="translate(0,0)">
    <path d="M188 70
             C188 44 158 36 128 36
             C92 36 64 54 64 86
             C64 118 96 124 128 128
             C160 132 192 138 192 170
             C192 202 164 220 128 220
             C98 220 68 212 68 186"
          fill="none" stroke="#00A85A" stroke-width="16" stroke-linecap="round"/>
    <g fill="#0B6E3B">
      <circle cx="188" cy="70"  r="13"/>
      <circle cx="64"  cy="86"  r="13"/>
      <circle cx="192" cy="170" r="13"/>
      <circle cx="68"  cy="186" r="13"/>
      <circle cx="128" cy="128" r="14"/>
    </g>
    <g fill="#0082C4">
      <rect x="206" y="34" width="14" height="46" rx="4"/>
      <rect x="190" y="50" width="46" height="14" rx="4"/>
    </g>
  </g>

  <!-- ===== wordmark ===== -->
  <g font-family="'Helvetica Neue', Arial, 'Segoe UI', sans-serif" transform="translate(266,148)">
    <text x="0" y="0" font-size="64" letter-spacing="-1">
      <tspan fill="#0B2E1E" font-weight="400">Synergy</tspan><tspan fill="#0082C4" font-weight="700">Plus</tspan>
    </text>
    <text x="2" y="34" font-size="20" letter-spacing="3" fill="#5A7062" font-weight="500">KUBERNETES-NATIVE SIM MESH</text>
  </g>
</svg>
